<?xml version="1.0" standalone="no"?>
<!DOCTYPE svg PUBLIC "-//W3C//DTD SVG 20010904//EN"
 "http://www.w3.org/TR/2001/REC-SVG-20010904/DTD/svg10.dtd">
<svg version="1.0" xmlns="http://www.w3.org/2000/svg"
 width="534.000000pt" height="534.000000pt" viewBox="0 0 534.000000 534.000000"
 preserveAspectRatio="xMidYMid meet">

<g transform="translate(0.000000,534.000000) scale(0.100000,-0.100000)"
fill="#000000" stroke="none">
<path d="M215 5305 c-88 -36 -168 -122 -195 -212 -20 -68 -20 -75 -18 -2448
l3 -2380 26 -56 c37 -79 90 -133 167 -171 l67 -33 2380 -3 2380 -2 69 20 c58
18 78 31 131 83 47 46 68 77 84 120 l21 58 0 1869 0 1870 -1141 0 -1141 0 7
-1590 c6 -1346 5 -1590 -6 -1589 -8 0 -174 33 -369 73 l-355 72 -3 1517 -2
1517 -554 0 -554 0 -146 233 c-80 128 -146 236 -146 240 0 5 6 7 13 6 6 -1
999 -1 2205 0 l2193 1 -3 293 c-3 287 -3 293 -28 342 -31 64 -101 134 -165
165 l-50 25 -2405 2 -2405 3 -60 -25z"/>
</g>
</svg>
